<svg width="373" height="340" viewBox="0 0 373 340" fill="none" xmlns="http://www.w3.org/2000/svg">
<path d="M87.3021 319.069C85.412 319.069 83.8804 320.613 83.8804 322.519C83.8804 324.424 85.412 325.969 87.3021 325.969C89.1923 325.969 90.7253 324.424 90.7253 322.519C90.7253 320.613 89.1923 319.069 87.3021 319.069Z" fill="#F1B357"/>
<path d="M87.3021 292.221C85.412 292.221 83.8804 293.766 83.8804 295.671C83.8804 297.577 85.412 299.122 87.3021 299.122C89.1923 299.122 90.7253 297.577 90.7253 295.671C90.7253 293.766 89.1923 292.221 87.3021 292.221Z" fill="#F1B357"/>
<path d="M59.3415 265.152C57.4513 265.152 55.9197 266.696 55.9197 268.602C55.9197 270.507 57.4513 272.052 59.3415 272.052C61.2316 272.052 62.7646 270.507 62.7646 268.602C62.7646 266.696 61.2316 265.152 59.3415 265.152Z" fill="#F1B357"/>
<path d="M59.3415 319.069C57.4513 319.069 55.9197 320.613 55.9197 322.519C55.9197 324.424 57.4513 325.969 59.3415 325.969C61.2316 325.969 62.7646 324.424 62.7646 322.519C62.7646 320.613 61.2316 319.069 59.3415 319.069Z" fill="#F1B357"/>
<path d="M59.3415 292.221C57.4513 292.221 55.9197 293.766 55.9197 295.671C55.9197 297.577 57.4513 299.122 59.3415 299.122C61.2316 299.122 62.7646 297.577 62.7646 295.671C62.7646 293.766 61.2316 292.221 59.3415 292.221Z" fill="#F1B357"/>
<path d="M31.7897 265.152C29.8995 265.152 28.368 266.696 28.368 268.602C28.368 270.507 29.8995 272.052 31.7897 272.052C33.6799 272.052 35.2129 270.507 35.2129 268.602C35.2129 266.696 33.6799 265.152 31.7897 265.152Z" fill="#F1B357"/>
<path d="M31.7897 238C29.8995 238 28.368 239.544 28.368 241.45C28.368 243.355 29.8995 244.9 31.7897 244.9C33.6799 244.9 35.2129 243.355 35.2129 241.45C35.2129 239.544 33.6799 238 31.7897 238Z" fill="#F1B357"/>
<path d="M31.7897 319.069C29.8995 319.069 28.368 320.613 28.368 322.519C28.368 324.424 29.8995 325.969 31.7897 325.969C33.6799 325.969 35.2129 324.424 35.2129 322.519C35.2129 320.613 33.6799 319.069 31.7897 319.069Z" fill="#F1B357"/>
<path d="M31.7897 292.221C29.8995 292.221 28.368 293.766 28.368 295.671C28.368 297.577 29.8995 299.122 31.7897 299.122C33.6799 299.122 35.2129 297.577 35.2129 295.671C35.2129 293.766 33.6799 292.221 31.7897 292.221Z" fill="#F1B357"/>
<path d="M3.42153 265.152C1.53135 265.152 -0.000213632 266.696 -0.000213798 268.602C-0.000213965 270.507 1.53135 272.052 3.42153 272.052C5.31172 272.052 6.84473 270.507 6.84473 268.602C6.84473 266.696 5.31172 265.152 3.42153 265.152Z" fill="#F1B357"/>
<path d="M3.42153 238C1.53135 238 -0.000213632 239.544 -0.000213798 241.45C-0.000213965 243.355 1.53135 244.9 3.42153 244.9C5.31172 244.9 6.84473 243.355 6.84473 241.45C6.84473 239.544 5.31172 238 3.42153 238Z" fill="#F1B357"/>
<path d="M3.42153 291.814C1.53135 291.814 -0.000213632 293.359 -0.000213798 295.264C-0.000213965 297.17 1.53135 298.714 3.42153 298.714C5.31172 298.714 6.84473 297.17 6.84473 295.264C6.84473 293.359 5.31172 291.814 3.42153 291.814Z" fill="#F1B357"/>
<g filter="url(#filter0_d_728_99)">
<rect x="259" y="248" width="62" height="78" rx="3" fill="white"/>
<rect x="259.5" y="248.5" width="61" height="77" rx="2.5" stroke="#ECECEC"/>
</g>
<path d="M279 255L278 246.5L302 243.5L303 252L279 255Z" fill="#F0F0F0"/>
<rect x="266" y="265" width="47" height="5" fill="#F0F0F0"/>
<rect x="266" y="280" width="29" height="5" fill="#F0F0F0"/>
<rect x="300" y="280" width="13" height="5" fill="#F0F0F0"/>
<rect x="266" y="295" width="47" height="5" fill="#F0F0F0"/>
<rect x="266" y="310" width="16" height="5" fill="#F0F0F0"/>
<rect x="287" y="310" width="26" height="5" fill="#F0F0F0"/>
<g filter="url(#filter1_d_728_99)">
<rect x="51" y="143" width="222" height="146" rx="10" fill="white"/>
<rect x="51.5" y="143.5" width="221" height="145" rx="9.5" stroke="#ECECEC"/>
</g>
<path d="M63 164C114.166 150.52 182.319 158.383 210 164V108H63V164Z" fill="#F0F0F0"/>
<rect x="28" y="97" width="218" height="13" fill="#4B7CCB"/>
<path d="M101.5 186V242.5L89.5 228H0V186H101.5Z" fill="#F1B357"/>
<path d="M71 307V270L78.803 279.496H137V307H71Z" fill="#F0F0F0"/>
<path d="M238 147C238 148.105 238.895 149 240 149C241.105 149 242 148.105 242 147H238ZM240 97.5H238V147H240H242V97.5H240Z" fill="#4B7CCB"/>
<path d="M245 161C245 159.555 244.871 158.125 244.619 156.79C244.368 155.456 244 154.243 243.536 153.222C243.071 152.2 242.52 151.39 241.913 150.837C241.307 150.285 240.657 150 240 150C239.343 150 238.693 150.285 238.087 150.837C237.48 151.39 236.929 152.2 236.464 153.222C236 154.243 235.632 155.456 235.381 156.79C235.129 158.125 235 159.555 235 161L240 161H245Z" fill="#4B7CCB"/>
<path d="M152.391 185.52C153.357 185.52 154.632 185.49 156.214 185.432C157.825 185.373 159.744 185.285 161.971 185.168V185.432C161.971 186.838 161.766 187.541 161.355 187.541C159.305 187.541 157.913 187.79 157.181 188.288C156.448 188.786 156.082 189.621 156.082 190.793C156.082 191.496 156.199 192.434 156.434 193.605L163.201 230.432L184.295 194.309C184.998 193.078 185.35 191.672 185.35 190.09C185.35 189.328 184.852 188.713 183.855 188.244C182.859 187.775 181.775 187.541 180.604 187.541C180.486 187.541 180.428 187.395 180.428 187.102C180.428 186.135 180.633 185.49 181.043 185.168C183.152 185.285 184.881 185.373 186.229 185.432C187.605 185.49 188.602 185.52 189.217 185.52C189.891 185.52 190.945 185.49 192.381 185.432C193.846 185.373 195.691 185.285 197.918 185.168V185.695C197.801 186.926 197.566 187.541 197.215 187.541C196.102 187.541 194.842 187.922 193.436 188.684C192.029 189.445 190.887 190.588 190.008 192.111L161.355 241.33C160.271 243.264 159.158 244.23 158.016 244.23C157.723 244.23 157.459 244.055 157.225 243.703L148.523 194.572C148.172 192.58 147.732 190.969 147.205 189.738C146.912 189.094 146.253 188.566 145.228 188.156C144.202 187.746 143.367 187.541 142.723 187.541C142.605 187.541 142.547 187.395 142.547 187.102C142.547 186.135 142.752 185.49 143.162 185.168C145.564 185.285 147.527 185.373 149.051 185.432C150.604 185.49 151.717 185.52 152.391 185.52ZM213.65 204.768C215.818 204.768 217.957 205.148 220.066 205.91L214.705 233.684C214.529 234.387 214.441 235.119 214.441 235.881C214.441 237.346 214.734 238.078 215.32 238.078C216.053 238.078 216.932 237.565 217.957 236.54C218.982 235.485 219.861 234.592 220.594 233.859L221.121 233.244C221.238 233.244 221.458 233.522 221.78 234.079C222.103 234.636 222.264 235.031 222.264 235.266C221.766 236.115 220.857 237.199 219.539 238.518C218.25 239.836 216.844 241.008 215.32 242.033C213.797 243.029 212.42 243.527 211.189 243.527C210.252 243.527 209.52 243.103 208.992 242.253C208.465 241.403 208.201 240.305 208.201 238.957C208.201 238.049 208.406 236.496 208.816 234.299L209.124 232.761C209.212 232.351 209.256 232.102 209.256 232.014C208.787 232.893 208.113 233.977 207.234 235.266C206.355 236.525 205.345 237.785 204.202 239.045C203.06 240.305 201.858 241.359 200.599 242.209C199.339 243.029 198.094 243.439 196.863 243.439C194.285 243.439 192.249 242.282 190.755 239.968C189.261 237.653 188.514 234.855 188.514 231.574C188.514 227.385 189.759 223.21 192.249 219.05C193.919 216.237 195.911 213.762 198.226 211.623C200.569 209.484 203.074 207.814 205.74 206.613C208.406 205.383 211.043 204.768 213.65 204.768ZM209.959 208.811C208.23 208.811 206.487 209.426 204.729 210.656C202.972 211.857 201.36 213.483 199.896 215.534C198.431 217.556 197.244 219.812 196.336 222.302C195.457 224.763 195.018 227.238 195.018 229.729C195.018 235.471 196.512 238.342 199.5 238.342C200.555 238.342 201.697 237.756 202.928 236.584C204.158 235.412 205.374 233.859 206.575 231.926C207.776 229.992 208.831 227.897 209.739 225.642C210.677 223.356 211.365 221.115 211.805 218.918L213.562 209.953C212.859 209.191 211.658 208.811 209.959 208.811ZM239.666 204.768C240.604 204.768 241.336 205.192 241.863 206.042C242.391 206.892 242.654 207.99 242.654 209.338C242.654 210.627 242.479 212.18 242.127 213.996L240.721 221.379C241.453 219.65 242.391 217.834 243.533 215.93C244.705 213.996 245.95 212.18 247.269 210.48C248.587 208.781 249.891 207.404 251.18 206.35C252.469 205.295 253.611 204.768 254.607 204.768C256.6 204.768 258.211 205.705 259.441 207.58C259.441 211.506 258.357 213.469 256.189 213.469C255.721 213.469 255.164 213.103 254.52 212.37C253.875 211.638 253.201 211.271 252.498 211.271C251.648 211.271 250.535 211.975 249.158 213.381C247.781 214.787 246.36 216.633 244.896 218.918C243.431 221.174 242.112 223.62 240.94 226.257C239.769 228.864 238.963 231.369 238.523 233.771L236.854 243C235.857 243.176 234.891 243.264 233.953 243.264C232.84 243.264 231.756 243.176 230.701 243L235.975 215.93C236.268 213.908 236.414 212.736 236.414 212.414C236.414 210.949 236.121 210.217 235.535 210.217C235.037 210.217 234.29 210.686 233.294 211.623C232.825 212.092 232.312 212.604 231.756 213.161C231.229 213.718 230.877 214.113 230.701 214.348C230.584 214.348 230.364 214.069 230.042 213.513C229.72 212.956 229.559 212.561 229.559 212.326C230.027 211.535 230.877 210.554 232.107 209.382C233.338 208.181 234.656 207.111 236.062 206.174C237.469 205.236 238.67 204.768 239.666 204.768ZM277.107 204.504C280.447 204.504 283.084 205.617 285.018 207.844C285.311 208.518 285.457 209.133 285.457 209.689C285.457 210.744 285.179 211.652 284.622 212.414C284.065 213.176 283.348 213.557 282.469 213.557C281.678 213.557 280.945 213.132 280.271 212.282C279.627 211.433 278.821 210.568 277.854 209.689C276.888 208.811 275.613 208.371 274.031 208.371C272.801 208.371 271.834 208.781 271.131 209.602C270.428 210.422 270.076 211.359 270.076 212.414C270.076 213.938 270.647 215.563 271.79 217.292C272.933 219.021 274.178 220.559 275.525 221.906C276.873 223.254 278.118 224.895 279.261 226.828C280.403 228.762 280.975 230.725 280.975 232.717C280.975 235.939 279.803 238.547 277.459 240.539C275.115 242.531 272.098 243.527 268.406 243.527C265.066 243.527 262.43 242.414 260.496 240.188C260.203 239.719 260.057 239.162 260.057 238.518C260.057 237.463 260.335 236.525 260.892 235.705C261.448 234.885 262.166 234.475 263.045 234.475C263.836 234.475 264.568 234.899 265.242 235.749C265.887 236.599 266.692 237.463 267.659 238.342C268.626 239.221 269.9 239.66 271.482 239.66C272.771 239.66 273.812 239.235 274.603 238.386C275.394 237.536 275.789 236.613 275.789 235.617C275.789 234.094 275.218 232.468 274.075 230.739C272.933 229.011 271.688 227.473 270.34 226.125C268.992 224.777 267.747 223.137 266.604 221.203C265.462 219.27 264.891 217.307 264.891 215.314C264.891 213.674 265.433 212.019 266.517 210.349C267.601 208.679 269.065 207.287 270.911 206.174C272.757 205.061 274.822 204.504 277.107 204.504ZM303.123 186.223C304.002 186.223 304.749 186.574 305.364 187.277C305.979 187.98 306.287 188.801 306.287 189.738C306.287 191.145 305.833 192.375 304.925 193.43C304.017 194.484 302.889 195.012 301.541 195.012C300.604 195.012 299.871 194.646 299.344 193.913C298.816 193.181 298.553 192.287 298.553 191.232C298.553 189.885 298.992 188.713 299.871 187.717C300.75 186.721 301.834 186.223 303.123 186.223ZM300.574 204.768C301.512 204.768 302.244 205.192 302.771 206.042C303.299 206.892 303.562 207.99 303.562 209.338C303.562 210.539 303.387 212.092 303.035 213.996L299.168 233.684C298.992 234.387 298.904 235.119 298.904 235.881C298.904 237.346 299.197 238.078 299.783 238.078C300.516 238.078 301.395 237.565 302.42 236.54C303.445 235.485 304.324 234.592 305.057 233.859L305.584 233.244C305.701 233.244 305.921 233.522 306.243 234.079C306.565 234.636 306.727 235.031 306.727 235.266C306.229 236.115 305.32 237.199 304.002 238.518C302.713 239.836 301.307 241.008 299.783 242.033C298.26 243.029 296.883 243.527 295.652 243.527C294.715 243.527 293.982 243.103 293.455 242.253C292.928 241.403 292.664 240.305 292.664 238.957C292.664 238.078 292.869 236.525 293.279 234.299L296.883 215.93C297.176 214.201 297.322 213.029 297.322 212.414C297.322 210.949 297.029 210.217 296.443 210.217C296.092 210.217 295.608 210.451 294.993 210.92C294.407 211.389 293.836 211.916 293.279 212.502C292.723 213.059 292.312 213.498 292.049 213.82L291.609 214.348C291.492 214.348 291.272 214.069 290.95 213.513C290.628 212.956 290.467 212.561 290.467 212.326C290.936 211.535 291.785 210.554 293.016 209.382C294.246 208.181 295.564 207.111 296.971 206.174C298.377 205.236 299.578 204.768 300.574 204.768ZM315.34 206.086H321.492L323.602 195.363C323.777 194.777 325.213 194.484 327.908 194.484C328.494 194.484 329.021 194.514 329.49 194.572L327.293 206.086H335.291C335.584 206.086 335.73 206.467 335.73 207.229C335.73 207.902 335.467 208.752 334.939 209.777H326.59L321.932 233.684C321.756 234.387 321.668 235.119 321.668 235.881C321.668 237.346 321.961 238.078 322.547 238.078C323.279 238.078 324.158 237.565 325.184 236.54C326.209 235.485 327.088 234.592 327.82 233.859L328.348 233.244C328.465 233.244 328.685 233.522 329.007 234.079C329.329 234.636 329.49 235.031 329.49 235.266C328.992 236.115 328.084 237.199 326.766 238.518C325.477 239.836 324.07 241.008 322.547 242.033C321.023 243.029 319.646 243.527 318.416 243.527C317.479 243.527 316.746 243.103 316.219 242.253C315.691 241.403 315.428 240.305 315.428 238.957C315.428 238.078 315.633 236.525 316.043 234.299L320.789 209.777H314.549C314.373 209.777 314.285 209.455 314.285 208.811C314.285 208.049 314.637 207.141 315.34 206.086ZM348.387 204.768C350.145 204.768 351.595 206.262 352.737 209.25C353.909 212.297 354.686 216.208 355.066 220.983C355.359 224.206 355.564 226.931 355.682 229.157C355.828 231.384 355.916 233.376 355.945 235.134C356.004 236.892 356.033 238.693 356.033 240.539C357.557 238.664 359.109 236.408 360.691 233.771C362.273 231.135 363.606 228.425 364.69 225.642C365.774 222.858 366.316 220.295 366.316 217.951C366.316 214.523 365.584 211.389 364.119 208.547C364.881 206.027 366.346 204.768 368.514 204.768C371.092 204.768 372.381 207.082 372.381 211.711C372.381 218.186 369.861 225.583 364.822 233.903C362.303 238.063 359.563 241.931 356.604 245.505C353.675 249.108 350.716 252.258 347.728 254.953C344.739 257.648 341.912 259.743 339.246 261.237C336.58 262.731 334.266 263.479 332.303 263.479C330.779 263.479 329.52 263.127 328.523 262.424C327.527 261.721 327.029 260.871 327.029 259.875C327.029 258 327.703 256.711 329.051 256.008C330.34 256.77 332.303 257.15 334.939 257.15C339.832 257.15 344.051 254.543 347.596 249.328C348.943 247.365 349.617 243.439 349.617 237.551C349.617 234.68 349.544 231.823 349.397 228.981C349.251 226.14 348.987 223.225 348.606 220.236C348.401 218.537 348.094 216.926 347.684 215.402C347.303 213.879 346.834 212.634 346.277 211.667C345.721 210.7 345.076 210.217 344.344 210.217C343.816 210.217 343.025 210.715 341.971 211.711C340.916 212.707 340.096 213.586 339.51 214.348C339.393 214.348 339.173 214.069 338.851 213.513C338.528 212.956 338.367 212.561 338.367 212.326C338.543 211.887 339.012 211.257 339.773 210.437C340.564 209.616 341.487 208.767 342.542 207.888C343.597 207.009 344.651 206.276 345.706 205.69C346.761 205.075 347.654 204.768 348.387 204.768Z" fill="#4B7CCB"/>
<path d="M324 116C324 128.8 316.667 141.667 313 146.5C326.6 146.5 335 142.167 337.5 140C343.5 136.4 347.667 122.5 349 116C337.8 123.6 327.667 119.167 324 116Z" fill="#F0F0F0"/>
<path d="M187 58.5C181.8 42.5 168.167 39.5 162 40C172.8 28 173.5 9.66666 172.5 2C187.7 14.4 191.833 24.5 192 28C192.8 36 189 51.6667 187 58.5Z" fill="#F0F0F0" stroke="#F0F0F0"/>
<defs>
<filter id="filter0_d_728_99" x="253" y="242" width="82" height="98" filterUnits="userSpaceOnUse" color-interpolation-filters="sRGB">
<feFlood flood-opacity="0" result="BackgroundImageFix"/>
<feColorMatrix in="SourceAlpha" type="matrix" values="0 0 0 0 0 0 0 0 0 0 0 0 0 0 0 0 0 0 127 0" result="hardAlpha"/>
<feOffset dx="4" dy="4"/>
<feGaussianBlur stdDeviation="5"/>
<feComposite in2="hardAlpha" operator="out"/>
<feColorMatrix type="matrix" values="0 0 0 0 0.690576 0 0 0 0 0.690576 0 0 0 0 0.690576 0 0 0 0.15 0"/>
<feBlend mode="normal" in2="BackgroundImageFix" result="effect1_dropShadow_728_99"/>
<feBlend mode="normal" in="SourceGraphic" in2="effect1_dropShadow_728_99" result="shape"/>
</filter>
<filter id="filter1_d_728_99" x="45" y="137" width="242" height="166" filterUnits="userSpaceOnUse" color-interpolation-filters="sRGB">
<feFlood flood-opacity="0" result="BackgroundImageFix"/>
<feColorMatrix in="SourceAlpha" type="matrix" values="0 0 0 0 0 0 0 0 0 0 0 0 0 0 0 0 0 0 127 0" result="hardAlpha"/>
<feOffset dx="4" dy="4"/>
<feGaussianBlur stdDeviation="5"/>
<feComposite in2="hardAlpha" operator="out"/>
<feColorMatrix type="matrix" values="0 0 0 0 0.690576 0 0 0 0 0.690576 0 0 0 0 0.690576 0 0 0 0.15 0"/>
<feBlend mode="normal" in2="BackgroundImageFix" result="effect1_dropShadow_728_99"/>
<feBlend mode="normal" in="SourceGraphic" in2="effect1_dropShadow_728_99" result="shape"/>
</filter>
</defs>
</svg>
